<svg width="22" height="15" viewBox="0 0 22 15" fill="none" xmlns="http://www.w3.org/2000/svg">
<path d="M3.02983 0C1.36256 0 0 1.43233 0 3.1854C0 4.19008 0.447918 5.08634 1.14029 5.66774V14.3199V14.3197C1.14029 14.6954 1.43006 15 1.78735 15H20.2127C20.5699 15 20.8597 14.6954 20.8597 14.3197V5.66804C21.5521 5.08664 22 4.19037 22 3.1857C22 1.43282 20.6376 0.000296207 18.9702 0.000296207L3.02983 0ZM3.02983 1.36056H11.2659C12.2388 1.36056 13.0016 2.16251 13.0016 3.1854C13.0016 3.85183 12.6709 4.41345 12.1704 4.73556C11.9783 4.85913 11.8613 5.07893 11.8613 5.31565V13.6393H2.43424V5.31565C2.43424 5.07895 2.31707 4.85916 2.12515 4.73556C1.6247 4.41346 1.29397 3.85179 1.29397 3.1854C1.29397 2.16251 2.05675 1.36056 3.02969 1.36056H3.02983ZM13.7464 1.36056H18.9704C19.9434 1.36056 20.7062 2.16251 20.7062 3.1854C20.7062 3.85183 20.3754 4.41345 19.875 4.73556H19.8748C19.6829 4.85913 19.5657 5.07893 19.5657 5.31565V13.6393H13.1557V5.66793C13.8481 5.08654 14.296 4.19027 14.296 3.1856C14.296 2.50799 14.0924 1.87839 13.7464 1.36075L13.7464 1.36056ZM6.22257 4.7773H6.22239C6.05431 4.78243 5.8949 4.85626 5.77754 4.98306L4.0366 6.8134C3.91239 6.94038 3.8418 7.11425 3.84053 7.29646C3.83927 7.47868 3.90751 7.65369 4.02992 7.78238C4.15251 7.91126 4.31897 7.98301 4.49229 7.98168C4.66561 7.98035 4.83098 7.90613 4.95176 7.77536L6.6927 5.94502V5.94521C6.88408 5.74951 6.94149 5.45055 6.8375 5.19204C6.7335 4.93371 6.48923 4.76896 6.22238 4.7773H6.22257ZM8.40763 6.22936H8.40745C8.23937 6.23467 8.07995 6.30832 7.96278 6.43511L5.41792 9.11065C5.29353 9.23763 5.22293 9.41169 5.22167 9.59371C5.22041 9.77593 5.28865 9.95094 5.41124 10.0798C5.53364 10.2085 5.70028 10.2803 5.87342 10.2789C6.04674 10.2776 6.21229 10.2034 6.33289 10.0728L8.87775 7.39727C9.06912 7.20157 9.12672 6.90261 9.02273 6.6441C8.91855 6.38577 8.67428 6.22102 8.40747 6.22936L8.40763 6.22936ZM9.78876 8.52661C9.62068 8.53193 9.46109 8.60576 9.34391 8.73255L7.60297 10.5629V10.5627C7.47894 10.6897 7.40853 10.8637 7.40726 11.0456C7.40618 11.2276 7.47442 11.4026 7.59683 11.5313C7.71924 11.66 7.88552 11.7317 8.05865 11.7306C8.23179 11.7293 8.39716 11.6552 8.51795 11.5248L10.2589 9.69451C10.4503 9.49901 10.5079 9.19985 10.4039 8.94154C10.2997 8.68302 10.0554 8.51846 9.78874 8.52662L9.78876 8.52661Z" fill="#1A162E"/>
</svg>
